<?xml version="1.0" encoding="utf-8"?>
<!-- Generator: Adobe Illustrator 16.0.0, SVG Export Plug-In . SVG Version: 6.00 Build 0)  -->
<!DOCTYPE svg PUBLIC "-//W3C//DTD SVG 1.1//EN" "http://www.w3.org/Graphics/SVG/1.1/DTD/svg11.dtd">
<svg version="1.1" id="Layer_1" xmlns="http://www.w3.org/2000/svg" xmlns:xlink="http://www.w3.org/1999/xlink" x="0px" y="0px"
	 width="302.5px" height="35.5px" viewBox="0 0 302.5 35.5" enable-background="new 0 0 302.5 35.5" xml:space="preserve">
<g>
	<path d="M27.643,8.711c1.44,1.248,2.568,2.742,3.384,4.481c0.816,1.74,1.224,3.63,1.224,5.67c0,1.872-0.354,3.624-1.062,5.256
		c-0.708,1.632-1.668,3.059-2.88,4.284c-1.212,1.225-2.634,2.191-4.266,2.898c-1.632,0.707-3.384,1.063-5.256,1.063
		c-1.368,0-2.676-0.193-3.924-0.576c-1.248-0.385-2.412-0.924-3.492-1.621l0,0l-1.728-1.367l0,0
		c-1.344-1.225-2.406-2.688-3.186-4.392c-0.78-1.703-1.17-3.552-1.17-5.544c0-1.872,0.354-3.624,1.062-5.256
		c0.708-1.632,1.674-3.054,2.898-4.267c1.224-1.211,2.651-2.172,4.284-2.879c1.632-0.709,3.384-1.063,5.256-1.063
		c1.296,0,2.543,0.174,3.744,0.521c1.2,0.349,2.316,0.846,3.348,1.494"/>
	<path d="M44.958,31.678h-8.028V5.831h18.54v7.416H44.958v6.912h8.856v5.869h-8.856V31.678z"/>
	<path d="M68.106,31.678h-8.028V5.831h18.54v7.416H68.106v6.912h8.856v5.869h-8.856V31.678z"/>
	<path d="M113.573,5.831v6.336h-5.256l0.252,19.511h-8.028l-0.252-19.511h-5.688V5.831h18.792H113.573z"/>
	<path d="M132.005,5.831h9v25.847h-9v-7.882h-5.292v7.882h-9V5.831h9v9.721h5.292V6.047V5.831z"/>
	<path d="M154.721,12.383v3.635h7.848v4.609h-7.848v3.852h10.512v7.199h-18.539V5.831h18.539v6.553H154.721z"/>
	<path d="M190.612,12.383v3.635h7.849v4.609h-7.849v3.852h10.513v7.199h-18.541V5.831h18.541v6.553H190.612z"/>
	<path d="M221.859,5.831l10.477,25.847h-9.54l-2.376-6.875l-2.88-0.018l-3.132-0.02l-2.124,6.912h-9.54l10.08-25.847h8.783H221.859z
		 M214.408,24.766l6.012,0.037"/>
	<path d="M253.072,20.555c0.215,0.48,0.414,1.098,0.594,1.854s0.203,1.59,0.072,2.502c-0.133,0.912-0.492,1.867-1.08,2.863
		c-0.589,0.996-1.555,1.973-2.898,2.934c-0.096,0.072-0.187,0.139-0.27,0.197c-0.085,0.061-0.175,0.115-0.271,0.162
		c-0.144,0.096-0.276,0.174-0.396,0.234c-0.121,0.061-0.24,0.113-0.36,0.162s-0.234,0.09-0.343,0.125
		c-0.107,0.037-0.222,0.078-0.342,0.127c-1.344,0.432-2.736,0.648-4.176,0.648c-1.992,0-3.846-0.391-5.563-1.17
		c-1.715-0.781-3.197-1.855-4.445-3.223l4.68-4.608c0.504,0.575,1.092,1.062,1.764,1.458s1.393,0.666,2.16,0.811
		c0.721,0.119,1.464,0.078,2.232-0.127c0.768-0.203,1.296-0.545,1.584-1.025c0.145-0.24,0.216-0.444,0.216-0.612
		c0-0.167-0.036-0.317-0.108-0.45c-0.071-0.131-0.156-0.228-0.252-0.287c-0.096-0.061-0.156-0.103-0.18-0.127
		c-0.863-0.336-1.746-0.642-2.646-0.918c-0.9-0.275-1.782-0.558-2.646-0.846c-0.697-0.24-1.369-0.486-2.017-0.738
		s-1.249-0.545-1.8-0.882c-0.816-0.504-1.465-1.092-1.944-1.765l-0.036-0.035c-0.096-0.145-0.186-0.288-0.27-0.432
		c-0.084-0.145-0.15-0.301-0.198-0.469c-0.216-0.479-0.421-1.098-0.612-1.854c-0.192-0.756-0.223-1.59-0.09-2.502
		c0.132-0.912,0.498-1.872,1.098-2.881c0.6-1.008,1.572-1.991,2.916-2.951c0.264-0.191,0.498-0.342,0.703-0.45
		c0.203-0.108,0.389-0.198,0.557-0.271h0.037c0.119-0.047,0.228-0.09,0.324-0.125c0.095-0.037,0.203-0.078,0.323-0.127
		c1.319-0.432,2.724-0.647,4.212-0.647c1.824,0,3.54,0.33,5.148,0.989c1.607,0.661,3.023,1.579,4.248,2.754l-4.717,4.609
		c-0.791-0.721-1.716-1.225-2.771-1.513c-0.024,0-0.042-0.005-0.055-0.019c-0.012-0.012-0.041-0.018-0.09-0.018
		c-0.359-0.096-0.75-0.138-1.17-0.126c-0.42,0.013-0.822,0.066-1.205,0.162c-0.385,0.097-0.732,0.233-1.045,0.414
		s-0.552,0.39-0.72,0.63c-0.144,0.24-0.216,0.45-0.216,0.63c0,0.181,0.036,0.331,0.107,0.45c0.072,0.121,0.156,0.216,0.252,0.288
		c0.096,0.071,0.168,0.108,0.217,0.108c0.695,0.264,1.404,0.51,2.124,0.737c0.72,0.229,1.427,0.462,2.124,0.702
		c0.887,0.265,1.733,0.553,2.537,0.864c0.805,0.312,1.543,0.672,2.215,1.079c0.84,0.505,1.5,1.094,1.98,1.765l0.035,0.072
		C252.748,19.907,252.903,20.195,253.072,20.555z"/>
	<path d="M266.176,12.383v3.635h7.848v4.609h-7.848v3.852h10.512v7.199h-18.54V5.831h18.54v6.553H266.176z"/>
	<path d="M297.099,24.01v7.667h-17.567V5.831h9v18.18H297.099z"/>
</g>
</svg>
