<?xml version="1.0" encoding="utf-8"?>
<!-- Generator: Adobe Illustrator 16.0.0, SVG Export Plug-In . SVG Version: 6.00 Build 0)  -->
<!DOCTYPE svg PUBLIC "-//W3C//DTD SVG 1.1//EN" "http://www.w3.org/Graphics/SVG/1.1/DTD/svg11.dtd">
<svg version="1.1" id="Layer_1" xmlns="http://www.w3.org/2000/svg" xmlns:xlink="http://www.w3.org/1999/xlink" x="0px" y="0px"
	 width="953px" height="210.333px" viewBox="0 0 953 210.333" enable-background="new 0 0 953 210.333" xml:space="preserve">
<g>
	<path stroke="#000000" stroke-width="5" stroke-miterlimit="10" d="M439.017,36.386c1.135-0.181,2.457-0.315,3.906-0.315
		c2.623,0,4.491,0.63,5.73,1.868c1.279,1.239,2.016,3.017,2.016,5.471c0,2.478-0.734,4.504-2.035,5.9
		c-1.345,1.417-3.527,2.184-6.279,2.184c-1.321,0-2.394-0.045-3.338-0.181V36.386L439.017,36.386z M440.864,49.827
		c0.463,0.09,1.135,0.09,1.848,0.09c3.906,0.023,6.026-2.342,6.026-6.439c0.021-3.625-1.868-5.855-5.731-5.855
		c-0.945,0-1.658,0.091-2.143,0.203V49.827z"/>
	<path stroke="#000000" stroke-width="5" stroke-miterlimit="10" d="M441.063,58.703v9.006c0,3.378,1.406,4.82,3.297,4.82
		c2.078,0,3.443-1.487,3.443-4.82v-9.006h1.848v8.871c0,4.66-2.289,6.552-5.354,6.552c-2.897,0-5.081-1.754-5.081-6.484v-8.938
		H441.063z"/>
	<path stroke="#000000" stroke-width="5" stroke-miterlimit="10" d="M439.122,96.4V81.224h2.016l4.516,7.678
		c1.027,1.779,1.867,3.355,2.52,4.933l0.063-0.021c-0.168-2.028-0.211-3.873-0.211-6.214v-6.373h1.724v15.176h-1.849l-4.492-7.702
		c-0.986-1.688-1.934-3.423-2.625-5.066l-0.063,0.022c0.104,1.914,0.127,3.738,0.127,6.261v6.485h-1.724L439.122,96.4L439.122,96.4z
		"/>
	<path stroke="#000000" stroke-width="5" stroke-miterlimit="10" d="M449.81,118.446c-0.649,0.36-2.018,0.721-3.736,0.721
		c-3.989,0-6.973-2.703-6.973-7.7c0-4.773,3.004-7.972,7.393-7.972c1.743,0,2.876,0.406,3.357,0.678l-0.461,1.598
		c-0.672-0.361-1.66-0.631-2.834-0.631c-3.317,0-5.521,2.275-5.521,6.26c0,3.738,1.995,6.104,5.417,6.104
		c1.134,0,2.269-0.25,3.002-0.631L449.81,118.446z"/>
	<path stroke="#000000" stroke-width="5" stroke-miterlimit="10" d="M442.179,135.502l-1.47,4.773h-1.892l4.81-15.177h2.204
		l4.661,15.177h-2.333l-0.549-5.466L442.179,135.502z M446.536,133.094l-1.406-4.369c-0.013-0.114-0.222-1.015-0.433-1.894h-0.063
		c-0.188,0.879-0.42,1.823-0.693,2.746l-1.385,4.388h4.262L446.536,133.094z"/>
</g>
<g>
	<path stroke="#000000" stroke-width="9" stroke-miterlimit="10" d="M177.121,41.088v48.854h37.792V41.088h10.201V157.85h-10.201
		v-54.742h-37.792v54.742h-10.202V41.088H177.121z"/>
	<path stroke="#000000" stroke-width="9" stroke-miterlimit="10" d="M255.247,121.124l-8.115,36.728h-10.433l26.548-116.763h12.172
		l26.664,116.761h-10.782l-8.346-36.727L255.247,121.124L255.247,121.124z"/>
	<path stroke="#000000" stroke-width="9" stroke-miterlimit="10" d="M320.392,41.088v69.297c0,25.985,7.768,37.071,18.199,37.071
		c11.479,0,19.014-11.433,19.014-37.071V41.088h10.201v68.258c0,35.858-12.637,50.411-29.562,50.411
		c-15.997,0-28.054-13.513-28.054-49.896V41.088H320.392z"/>
	<path stroke="#000000" stroke-width="9" stroke-miterlimit="10" d="M384.026,139.488c4.521,4.33,11.014,7.621,17.969,7.621
		c10.318,0,16.346-7.967,16.346-19.924c0-10.74-4.174-17.148-14.723-23.039c-12.751-6.931-20.635-16.978-20.635-33.263
		c0-18.191,10.084-31.703,25.271-31.703c7.884,0,13.796,2.771,17.158,5.716l-2.783,12.3c-2.435-2.251-7.649-5.543-14.723-5.543
		c-10.665,0-14.722,9.527-14.722,17.497c0,10.915,4.752,16.285,15.533,22.522c13.217,7.793,19.822,17.149,19.822,34.3
		c0,18.016-8.811,33.78-27.242,33.78c-7.533,0-15.766-3.465-19.938-7.622L384.026,139.488z"/>
</g>
<path stroke="#000000" stroke-width="5" stroke-miterlimit="10" d="M439.122,161.869v-15.176h2.016l4.516,7.677
	c1.027,1.779,1.867,3.356,2.52,4.934l0.063-0.023c-0.168-2.026-0.211-3.872-0.211-6.213v-6.373h1.724v15.177h-1.849l-4.492-7.702
	c-0.986-1.688-1.934-3.423-2.625-5.065l-0.063,0.022c0.104,1.912,0.127,3.737,0.127,6.26v6.485h-1.724L439.122,161.869
	L439.122,161.869z"/>
<rect x="15" y="27" fill="none" width="117.333" height="156"/>
<g>
	<path stroke="#000000" stroke-miterlimit="10" d="M72.385,126.768v8.448h-7.008l0.336,26.017H55.008l-0.336-26.017h-7.584v-8.448
		h25.057H72.385z"/>
	<path stroke="#000000" stroke-miterlimit="10" d="M96.96,126.768h12v34.465h-12v-10.512h-7.056v10.512h-12v-34.465h12v12.961h7.056
		v-12.673V126.768z"/>
	<path stroke="#000000" stroke-miterlimit="10" d="M127.248,135.648v4.703h10.463v6.145h-10.463v5.279h14.016v9.457h-24.721v-34.465
		h24.721v8.881H127.248z"/>
</g>
<g>
	<path d="M504.512,149.655c-2,3.12-4.649,5.62-7.95,7.5c-3.3,1.879-6.95,2.819-10.949,2.819c-3.12,0-6.041-0.59-8.761-1.77
		c-2.721-1.18-5.09-2.79-7.109-4.83c-2.021-2.04-3.621-4.419-4.8-7.14c-1.181-2.72-1.771-5.641-1.771-8.761s0.59-6.039,1.771-8.76
		c1.179-2.72,2.779-5.09,4.8-7.11c2.02-2.019,4.389-3.619,7.109-4.8c2.72-1.179,5.641-1.77,8.761-1.77c2.279,0,4.47,0.32,6.569,0.96
		c2.101,0.641,4.029,1.54,5.79,2.7c1.76,1.16,3.34,2.55,4.74,4.17c1.399,1.62,2.54,3.41,3.42,5.37l-11.939,5.34
		c-0.761-1.681-1.9-3.02-3.421-4.021c-1.521-0.999-3.239-1.5-5.159-1.5c-1.32,0-2.551,0.251-3.69,0.75
		c-1.14,0.501-2.13,1.17-2.97,2.011c-0.84,0.84-1.511,1.829-2.01,2.97c-0.501,1.14-0.75,2.37-0.75,3.689
		c0,1.32,0.249,2.551,0.75,3.69c0.499,1.14,1.17,2.141,2.01,3c0.84,0.86,1.83,1.54,2.97,2.04c1.14,0.501,2.37,0.75,3.69,0.75
		c1.8,0,3.439-0.46,4.92-1.38c1.479-0.92,2.619-2.12,3.42-3.601L504.512,149.655z"/>
	<path d="M546.031,120.555c2.4,2.081,4.28,4.57,5.641,7.471c1.359,2.9,2.04,6.05,2.04,9.449c0,3.12-0.591,6.041-1.771,8.761
		c-1.18,2.721-2.78,5.1-4.8,7.14c-2.021,2.04-4.391,3.65-7.11,4.83c-2.721,1.18-5.64,1.77-8.76,1.77c-2.28,0-4.461-0.32-6.54-0.96
		c-2.08-0.639-4.02-1.539-5.82-2.699l0,0l-2.88-2.28l0,0c-2.24-2.04-4.011-4.479-5.31-7.32c-1.301-2.84-1.95-5.919-1.95-9.24
		c0-3.12,0.59-6.039,1.771-8.76c1.179-2.72,2.79-5.09,4.83-7.11c2.039-2.019,4.419-3.619,7.14-4.8c2.72-1.179,5.64-1.77,8.76-1.77
		c2.16,0,4.239,0.29,6.24,0.87c2,0.58,3.859,1.41,5.58,2.489"/>
	<path d="M588.871,146.055v12.78h-29.28v-43.08h15v30.3H588.871z"/>
	<path d="M622.891,146.055v12.78h-29.28v-43.08h15v30.3H622.891z"/>
	<path d="M642.69,126.854v5.881h13.08v7.68h-13.08v6.6h17.52v11.82h-30.899v-43.08h30.899v11.1H642.69z"/>
	<path d="M705.689,149.655c-2,3.12-4.649,5.62-7.95,7.5c-3.3,1.879-6.95,2.819-10.949,2.819c-3.12,0-6.041-0.59-8.761-1.77
		c-2.721-1.18-5.09-2.79-7.109-4.83c-2.021-2.04-3.621-4.419-4.8-7.14c-1.181-2.72-1.771-5.641-1.771-8.761s0.59-6.039,1.771-8.76
		c1.179-2.72,2.779-5.09,4.8-7.11c2.02-2.019,4.389-3.619,7.109-4.8c2.72-1.179,5.641-1.77,8.761-1.77c2.279,0,4.47,0.32,6.569,0.96
		c2.101,0.641,4.029,1.54,5.79,2.7c1.76,1.16,3.34,2.55,4.74,4.17c1.399,1.62,2.54,3.41,3.42,5.37l-11.939,5.34
		c-0.761-1.681-1.9-3.02-3.421-4.021c-1.521-0.999-3.239-1.5-5.159-1.5c-1.32,0-2.551,0.251-3.69,0.75
		c-1.14,0.501-2.13,1.17-2.97,2.011c-0.84,0.84-1.511,1.829-2.01,2.97c-0.501,1.14-0.75,2.37-0.75,3.689
		c0,1.32,0.249,2.551,0.75,3.69c0.499,1.14,1.17,2.141,2.01,3c0.84,0.86,1.83,1.54,2.97,2.04c1.14,0.501,2.37,0.75,3.69,0.75
		c1.8,0,3.439-0.46,4.92-1.38c1.479-0.92,2.619-2.12,3.42-3.601L705.689,149.655z"/>
	<path d="M741.329,115.755v10.561h-8.76l0.42,32.52h-13.38l-0.42-32.52h-9.48v-10.561h31.32H741.329z"/>
	<path d="M747.089,158.835l0.12-43.08h13.319l0.061,43.08H747.089z"/>
	<path d="M863.187,115.755v43.08h-15.06l-16.021-20.22v20.22h-13.92v-43.08h15.721l14.46,17.82v-17.82H863.187z"/>
</g>
<path d="M803.336,120.487c2.4,2.081,4.28,4.57,5.641,7.471c1.359,2.9,2.04,6.05,2.04,9.449c0,3.12-0.591,6.041-1.771,8.761
	c-1.18,2.721-2.78,5.1-4.8,7.14c-2.021,2.04-4.391,3.65-7.11,4.83c-2.721,1.18-5.64,1.77-8.76,1.77c-2.28,0-4.461-0.32-6.54-0.96
	c-2.08-0.639-4.02-1.539-5.82-2.699l0,0l-2.88-2.28l0,0c-2.24-2.04-4.011-4.479-5.31-7.32c-1.301-2.84-1.95-5.919-1.95-9.24
	c0-3.12,0.59-6.039,1.771-8.76c1.179-2.72,2.79-5.09,4.83-7.11c2.039-2.019,4.419-3.619,7.14-4.8c2.72-1.179,5.64-1.77,8.76-1.77
	c2.16,0,4.239,0.29,6.24,0.87c2,0.58,3.859,1.41,5.58,2.489"/>
</svg>
