<?xml version="1.0" encoding="utf-8"?>
<!-- Generator: Adobe Illustrator 16.0.0, SVG Export Plug-In . SVG Version: 6.00 Build 0)  -->
<!DOCTYPE svg PUBLIC "-//W3C//DTD SVG 1.1//EN" "http://www.w3.org/Graphics/SVG/1.1/DTD/svg11.dtd">
<svg version="1.1" id="Layer_1" xmlns="http://www.w3.org/2000/svg" xmlns:xlink="http://www.w3.org/1999/xlink" x="0px" y="0px"
	 width="631px" height="510px" viewBox="0 0 631 510" enable-background="new 0 0 631 510" xml:space="preserve">
<circle fill="none" stroke="#FFFFFF" stroke-width="6" stroke-miterlimit="10" cx="305.503" cy="200.557" r="165.6"/>
<g>
	<path stroke="#FFFFFF" stroke-width="5" stroke-miterlimit="10" d="M438.27,138.006c1.135-0.188,2.457-0.328,3.906-0.328
		c2.623,0,4.491,0.656,5.73,1.944c1.279,1.289,2.016,3.139,2.016,5.692c0,2.578-0.734,4.687-2.035,6.14
		c-1.345,1.475-3.527,2.271-6.279,2.271c-1.319,0-2.394-0.047-3.338-0.188V138.006L438.27,138.006z M440.117,151.992
		c0.463,0.094,1.135,0.094,1.848,0.094c3.906,0.024,6.026-2.438,6.026-6.7c0.021-3.771-1.868-6.092-5.731-6.092
		c-0.945,0-1.658,0.094-2.143,0.211V151.992z"/>
	<path stroke="#FFFFFF" stroke-width="5" stroke-miterlimit="10" d="M440.316,161.227v9.371c0,3.516,1.406,5.016,3.297,5.016
		c2.078,0,3.443-1.548,3.443-5.016v-9.371h1.848v9.23c0,4.849-2.289,6.816-5.354,6.816c-2.897,0-5.081-1.824-5.081-6.746v-9.301
		H440.316z"/>
	<path stroke="#FFFFFF" stroke-width="5" stroke-miterlimit="10" d="M438.375,200.451V184.66h2.016l4.518,7.987
		c1.025,1.853,1.865,3.492,2.52,5.134l0.063-0.021c-0.169-2.111-0.212-4.031-0.212-6.467v-6.631h1.725v15.791h-1.85l-4.491-8.015
		c-0.986-1.758-1.935-3.562-2.625-5.271l-0.063,0.022c0.104,1.99,0.127,3.89,0.127,6.515v6.748h-1.725L438.375,200.451
		L438.375,200.451z"/>
	<path stroke="#FFFFFF" stroke-width="5" stroke-miterlimit="10" d="M449.063,223.391c-0.647,0.375-2.018,0.75-3.734,0.75
		c-3.989,0-6.975-2.813-6.975-8.012c0-4.967,3.004-8.295,7.395-8.295c1.743,0,2.876,0.422,3.355,0.705l-0.461,1.662
		c-0.672-0.375-1.66-0.656-2.834-0.656c-3.315,0-5.521,2.367-5.521,6.514c0,3.892,1.995,6.353,5.417,6.353
		c1.134,0,2.27-0.263,3.002-0.656L449.063,223.391z"/>
	<path stroke="#FFFFFF" stroke-width="5" stroke-miterlimit="10" d="M441.432,241.137l-1.47,4.967h-1.892l4.81-15.791h2.204
		l4.661,15.791h-2.333l-0.549-5.687L441.432,241.137z M445.789,238.631l-1.406-4.546c-0.013-0.118-0.222-1.056-0.433-1.97h-0.063
		c-0.188,0.914-0.42,1.896-0.693,2.856l-1.385,4.564h4.262L445.789,238.631z"/>
</g>
<g>
	<path stroke="#FFFFFF" stroke-width="14" stroke-miterlimit="10" d="M176.374,143.791v48.854h37.792v-48.854h10.201v116.762
		h-10.201V205.81h-37.792v54.742h-10.202V143.791H176.374z"/>
	<path stroke="#FFFFFF" fill="#FFFFFF" stroke-width="14" stroke-miterlimit="10" d="M254.5,223.827l-8.115,36.728h-10.433L262.5,143.792h12.172
		l26.664,116.761h-10.781l-8.347-36.727L254.5,223.827L254.5,223.827z"/>
	<path stroke="#FFFFFF" stroke-width="14" stroke-miterlimit="10" d="M319.645,143.791v69.297c0,25.985,7.77,37.071,18.199,37.071
		c11.479,0,19.014-11.434,19.014-37.071v-69.297h10.201v68.258c0,35.858-12.637,50.411-29.562,50.411
		c-15.997,0-28.054-13.513-28.054-49.896v-68.772H319.645z"/>
	<path stroke="#FFFFFF" stroke-width="14" stroke-miterlimit="10" d="M383.279,242.191c4.521,4.33,11.014,7.621,17.969,7.621
		c10.318,0,16.346-7.967,16.346-19.924c0-10.74-4.174-17.147-14.723-23.039c-12.751-6.932-20.635-16.979-20.635-33.264
		c0-18.191,10.084-31.703,25.271-31.703c7.884,0,13.796,2.771,17.158,5.716l-2.783,12.3c-2.435-2.251-7.649-5.543-14.723-5.543
		c-10.665,0-14.722,9.527-14.722,17.497c0,10.915,4.752,16.286,15.533,22.522c13.217,7.793,19.82,17.147,19.82,34.301
		c0,18.016-8.813,33.779-27.242,33.779c-7.531,0-15.766-3.465-19.938-7.622L383.279,242.191z"/>
</g>
<path stroke="#FFFFFF" stroke-width="5" stroke-miterlimit="10" d="M438.375,268.573v-15.791h2.016l4.518,7.987
	c1.025,1.853,1.865,3.492,2.52,5.134l0.063-0.023c-0.169-2.109-0.212-4.029-0.212-6.465v-6.631h1.725v15.791h-1.85l-4.491-8.015
	c-0.986-1.758-1.935-3.563-2.625-5.271l-0.063,0.022c0.104,1.99,0.127,3.89,0.127,6.515v6.748h-1.725L438.375,268.573
	L438.375,268.573z"/>
<g>
	<path stroke="#FFFFFF" fill="#FFFFFF" d="M204.934,368.034v27.547h-18.017l0.864,84.834h-27.518l-0.864-84.834h-19.497v-27.547h64.414H204.934z"/>
	<path stroke="#FFFFFF" fill="#FFFFFF" d="M247.628,396.99v15.339h26.901v20.036h-26.901v17.217h36.034v30.833H220.11V368.034h63.551v28.956H247.628z"/>
	<path  stroke="#FFFFFF" fill="#FFFFFF" d="M377.196,456.469c-4.114,8.137-9.563,14.661-16.351,19.564c-6.786,4.902-14.295,7.356-22.52,7.356
		c-6.417,0-12.424-1.541-18.017-4.617c-5.596-3.076-10.47-7.277-14.623-12.6c-4.155-5.322-7.446-11.53-9.872-18.627
		c-2.428-7.095-3.64-14.712-3.64-22.851c0-8.14,1.212-15.755,3.64-22.852c2.425-7.095,5.716-13.279,9.872-18.548
		c4.153-5.27,9.027-9.443,14.623-12.521c5.593-3.078,11.6-4.617,18.017-4.617c4.688,0,9.192,0.837,13.513,2.503
		c4.318,1.671,8.286,4.019,11.907,7.044c3.619,3.027,6.868,6.651,9.749,10.878c2.879,4.227,5.223,8.897,7.033,14.009l-24.557,13.931
		c-1.563-4.384-3.908-7.878-7.034-10.487c-3.127-2.606-6.663-3.912-10.611-3.912c-2.716,0-5.245,0.651-7.589,1.955
		c-2.345,1.306-4.381,3.053-6.108,5.244c-1.728,2.19-3.106,4.774-4.134,7.748c-1.03,2.973-1.543,6.183-1.543,9.626
		s0.513,6.65,1.543,9.625c1.027,2.975,2.406,5.583,4.134,7.827s3.764,4.017,6.108,5.32c2.344,1.306,4.873,1.957,7.589,1.957
		c3.702,0,7.074-1.199,10.119-3.601c3.042-2.398,5.386-5.53,7.033-9.392L377.196,456.469z"/>
	<path stroke="#FFFFFF" fill="#FFFFFF" d="M440.254,368.034h30.85v112.381h-30.85v-34.276h-18.141v34.276h-30.849V368.034h30.849v42.261h18.141v-41.32V368.034z"/>
</g>
</svg>
