<?xml version="1.0" encoding="utf-8"?>
<!-- Generator: Adobe Illustrator 16.0.0, SVG Export Plug-In . SVG Version: 6.00 Build 0)  -->
<!DOCTYPE svg PUBLIC "-//W3C//DTD SVG 1.1//EN" "http://www.w3.org/Graphics/SVG/1.1/DTD/svg11.dtd">
<svg version="1.1" id="Layer_1" xmlns="http://www.w3.org/2000/svg" xmlns:xlink="http://www.w3.org/1999/xlink" x="0px" y="0px"
	 width="78.025px" height="80.373px" viewBox="0 0 78.025 80.373" enable-background="new 0 0 78.025 80.373" xml:space="preserve">
<circle fill="none" stroke="#6D6E71" stroke-width="3" stroke-miterlimit="10" cx="36" cy="41.318" r="28.8"/>
<rect x="-138.392" y="86.841" fill="none" width="87.063" height="92.04"/>
<g>
	<g>
		<path fill="#6D6E71" d="M38.893,60.616c6-6,12-12,18-18c1.711-1.711-0.94-4.363-2.651-2.651c-6,6-12,12-18,18
			C34.53,59.676,37.182,62.327,38.893,60.616L38.893,60.616z"/>
	</g>
</g>
<g>
	<g>
		<path fill="#6D6E71" d="M36.003,24.579c6,6,12,12,18,18c1.711,1.711,4.363-0.939,2.651-2.651c-6-6-12-12-18-18
			C36.943,20.216,34.292,22.867,36.003,24.579L36.003,24.579z"/>
	</g>
</g>
<g>
	<g>
		<path fill="#6D6E71" d="M54.329,39.378c-11.002,0.022-22.004,0.043-33.006,0.065c-2.418,0.005-2.418,3.755,0,3.75
			c11.002-0.021,22.004-0.043,33.006-0.064C56.747,43.123,56.748,39.373,54.329,39.378L54.329,39.378z"/>
	</g>
</g>
</svg>
