<?xml version="1.0" encoding="utf-8"?>
<!-- Generator: Adobe Illustrator 16.0.0, SVG Export Plug-In . SVG Version: 6.00 Build 0)  -->
<!DOCTYPE svg PUBLIC "-//W3C//DTD SVG 1.1//EN" "http://www.w3.org/Graphics/SVG/1.1/DTD/svg11.dtd">
<svg version="1.1" id="Layer_1" xmlns="http://www.w3.org/2000/svg" xmlns:xlink="http://www.w3.org/1999/xlink" x="0px" y="0px"
	 width="953px" height="210.333px" viewBox="0 0 953 210.333" enable-background="new 0 0 953 210.333" xml:space="preserve">
<g>
	<path stroke="#000000" stroke-width="5" stroke-miterlimit="10" d="M439.017,36.386c1.135-0.181,2.457-0.315,3.906-0.315
		c2.623,0,4.491,0.63,5.73,1.868c1.279,1.239,2.016,3.017,2.016,5.471c0,2.478-0.734,4.504-2.035,5.9
		c-1.345,1.417-3.527,2.184-6.279,2.184c-1.321,0-2.394-0.045-3.338-0.181V36.386L439.017,36.386z M440.864,49.827
		c0.463,0.09,1.135,0.09,1.848,0.09c3.906,0.023,6.026-2.342,6.026-6.439c0.021-3.625-1.868-5.855-5.731-5.855
		c-0.945,0-1.658,0.091-2.143,0.203V49.827z"/>
	<path stroke="#000000" stroke-width="5" stroke-miterlimit="10" d="M441.063,58.703v9.006c0,3.378,1.406,4.82,3.297,4.82
		c2.078,0,3.443-1.487,3.443-4.82v-9.006h1.848v8.871c0,4.66-2.289,6.552-5.354,6.552c-2.897,0-5.081-1.754-5.081-6.484v-8.938
		H441.063z"/>
	<path stroke="#000000" stroke-width="5" stroke-miterlimit="10" d="M439.122,96.4V81.224h2.016l4.516,7.678
		c1.027,1.779,1.867,3.355,2.52,4.933l0.063-0.021c-0.168-2.028-0.211-3.873-0.211-6.214v-6.373h1.724v15.176h-1.849l-4.492-7.702
		c-0.986-1.688-1.934-3.423-2.625-5.066l-0.063,0.022c0.104,1.914,0.127,3.738,0.127,6.261v6.485h-1.724L439.122,96.4L439.122,96.4z
		"/>
	<path stroke="#000000" stroke-width="5" stroke-miterlimit="10" d="M449.81,118.446c-0.649,0.36-2.018,0.721-3.736,0.721
		c-3.989,0-6.973-2.703-6.973-7.7c0-4.773,3.004-7.972,7.393-7.972c1.743,0,2.876,0.406,3.357,0.678l-0.461,1.598
		c-0.672-0.361-1.66-0.631-2.834-0.631c-3.317,0-5.521,2.275-5.521,6.26c0,3.738,1.995,6.104,5.417,6.104
		c1.134,0,2.269-0.25,3.002-0.631L449.81,118.446z"/>
	<path stroke="#000000" stroke-width="5" stroke-miterlimit="10" d="M442.179,135.502l-1.47,4.773h-1.892l4.81-15.177h2.204
		l4.661,15.177h-2.333l-0.549-5.466L442.179,135.502z M446.536,133.094l-1.406-4.369c-0.013-0.114-0.222-1.015-0.433-1.894h-0.063
		c-0.188,0.879-0.42,1.823-0.693,2.746l-1.385,4.388h4.262L446.536,133.094z"/>
</g>
<g>
	<path stroke="#000000" stroke-width="9" stroke-miterlimit="10" d="M177.121,41.088v48.854h37.792V41.088h10.201V157.85h-10.201
		v-54.742h-37.792v54.742h-10.202V41.088H177.121z"/>
	<path stroke="#000000" stroke-width="9" stroke-miterlimit="10" d="M255.247,121.124l-8.115,36.728h-10.433l26.548-116.763h12.172
		l26.664,116.761h-10.782l-8.346-36.727L255.247,121.124L255.247,121.124z"/>
	<path stroke="#000000" stroke-width="9" stroke-miterlimit="10" d="M320.392,41.088v69.297c0,25.985,7.768,37.071,18.199,37.071
		c11.479,0,19.014-11.433,19.014-37.071V41.088h10.201v68.258c0,35.858-12.637,50.411-29.562,50.411
		c-15.997,0-28.054-13.513-28.054-49.896V41.088H320.392z"/>
	<path stroke="#000000" stroke-width="9" stroke-miterlimit="10" d="M384.026,139.488c4.521,4.33,11.014,7.621,17.969,7.621
		c10.318,0,16.346-7.967,16.346-19.924c0-10.74-4.174-17.148-14.723-23.039c-12.751-6.931-20.635-16.978-20.635-33.263
		c0-18.191,10.084-31.703,25.271-31.703c7.884,0,13.796,2.771,17.158,5.716l-2.783,12.3c-2.435-2.251-7.649-5.543-14.723-5.543
		c-10.665,0-14.722,9.527-14.722,17.497c0,10.915,4.752,16.285,15.533,22.522c13.217,7.793,19.822,17.149,19.822,34.3
		c0,18.016-8.811,33.78-27.242,33.78c-7.533,0-15.766-3.465-19.938-7.622L384.026,139.488z"/>
</g>
<path stroke="#000000" stroke-width="5" stroke-miterlimit="10" d="M439.122,161.869v-15.176h2.016l4.516,7.677
	c1.027,1.779,1.867,3.356,2.52,4.934l0.063-0.023c-0.168-2.026-0.211-3.872-0.211-6.213v-6.373h1.724v15.177h-1.849l-4.492-7.702
	c-0.986-1.688-1.934-3.423-2.625-5.065l-0.063,0.022c0.104,1.912,0.127,3.737,0.127,6.26v6.485h-1.724L439.122,161.869
	L439.122,161.869z"/>
<rect x="15" y="27" fill="none" width="117.333" height="156"/>
<g>
	<path stroke="#000000" stroke-miterlimit="10" d="M72.385,126.768v8.448h-7.008l0.336,26.017H55.008l-0.336-26.017h-7.584v-8.448
		h25.057H72.385z"/>
	<path stroke="#000000" stroke-miterlimit="10" d="M96.96,126.768h12v34.465h-12v-10.512h-7.056v10.512h-12v-34.465h12v12.961h7.056
		v-12.673V126.768z"/>
	<path stroke="#000000" stroke-miterlimit="10" d="M127.248,135.648v4.703h10.463v6.145h-10.463v5.279h14.016v9.457h-24.721v-34.465
		h24.721v8.881H127.248z"/>
</g>
<g>
	<path d="M499.364,143.306c0.36,0.801,0.69,1.83,0.99,3.09s0.34,2.65,0.12,4.17c-0.221,1.521-0.82,3.111-1.8,4.771
		c-0.98,1.66-2.591,3.29-4.83,4.89c-0.16,0.12-0.311,0.23-0.45,0.33c-0.141,0.101-0.291,0.19-0.45,0.271
		c-0.24,0.16-0.46,0.29-0.66,0.39c-0.2,0.101-0.4,0.19-0.6,0.27c-0.2,0.081-0.39,0.15-0.57,0.21c-0.18,0.061-0.37,0.131-0.569,0.21
		c-2.241,0.721-4.561,1.08-6.96,1.08c-3.321,0-6.411-0.65-9.271-1.949c-2.86-1.3-5.33-3.091-7.41-5.37l7.8-7.681
		c0.841,0.96,1.82,1.771,2.94,2.431c1.119,0.66,2.319,1.109,3.6,1.35c1.2,0.201,2.439,0.131,3.721-0.21
		c1.279-0.339,2.16-0.909,2.64-1.71c0.24-0.399,0.36-0.739,0.36-1.02s-0.061-0.53-0.181-0.75c-0.119-0.22-0.26-0.38-0.42-0.48
		c-0.16-0.1-0.261-0.17-0.3-0.21c-1.439-0.56-2.91-1.069-4.41-1.53c-1.5-0.459-2.97-0.93-4.41-1.41
		c-1.16-0.399-2.279-0.81-3.359-1.229s-2.08-0.909-3-1.47c-1.36-0.841-2.44-1.82-3.24-2.94l-0.06-0.06
		c-0.161-0.24-0.311-0.48-0.45-0.721c-0.141-0.24-0.251-0.5-0.33-0.779c-0.36-0.801-0.7-1.83-1.021-3.09
		c-0.32-1.261-0.37-2.65-0.149-4.17c0.219-1.521,0.829-3.121,1.83-4.801c0.999-1.68,2.619-3.319,4.859-4.92
		c0.44-0.32,0.83-0.57,1.17-0.75s0.65-0.33,0.931-0.449h0.06c0.2-0.08,0.38-0.15,0.54-0.211c0.159-0.06,0.34-0.129,0.54-0.21
		c2.199-0.72,4.539-1.079,7.021-1.079c3.039,0,5.899,0.55,8.58,1.649c2.679,1.101,5.039,2.63,7.079,4.59l-7.859,7.681
		c-1.32-1.201-2.86-2.041-4.62-2.521c-0.04,0-0.07-0.009-0.09-0.03c-0.021-0.02-0.07-0.029-0.15-0.029
		c-0.6-0.16-1.25-0.23-1.95-0.211c-0.7,0.021-1.37,0.111-2.01,0.271c-0.641,0.16-1.221,0.39-1.74,0.69
		c-0.52,0.299-0.92,0.65-1.199,1.049c-0.24,0.4-0.36,0.75-0.36,1.051c0,0.3,0.06,0.551,0.18,0.75c0.12,0.201,0.26,0.359,0.42,0.48
		c0.16,0.119,0.279,0.18,0.36,0.18c1.159,0.44,2.34,0.85,3.54,1.229c1.2,0.381,2.379,0.771,3.54,1.171
		c1.479,0.439,2.89,0.92,4.229,1.439s2.57,1.12,3.69,1.8c1.399,0.84,2.499,1.821,3.3,2.94l0.061,0.119
		C498.824,142.226,499.084,142.706,499.364,143.306z"/>
	<path d="M536.144,118.766v10.561h-8.76l0.42,32.52h-13.38l-0.42-32.52h-9.48v-10.561h31.32H536.144z"/>
	<path d="M631.902,161.846h-16.56l-7.261-12.72h-1.5l0.181,12.72h-13.92l-0.36-43.08h23.46c2.56,0.16,4.86,0.801,6.9,1.92
		c0.879,0.48,1.729,1.09,2.55,1.83c0.819,0.74,1.56,1.65,2.22,2.73s1.189,2.35,1.59,3.81c0.399,1.46,0.62,3.149,0.66,5.069
		c0.159,1.801,0.02,3.521-0.42,5.16c-0.2,0.721-0.471,1.451-0.81,2.19c-0.341,0.741-0.791,1.45-1.351,2.13
		c-0.561,0.681-1.24,1.33-2.04,1.95c-0.801,0.621-1.739,1.15-2.819,1.59L631.902,161.846z M614.202,137.605c0.56,0,1.06-0.1,1.5-0.3
		c0.36-0.2,0.69-0.489,0.99-0.87c0.3-0.379,0.45-0.969,0.45-1.77c-0.04-0.76-0.221-1.33-0.54-1.711
		c-0.32-0.379-0.681-0.669-1.08-0.869c-0.44-0.199-0.96-0.301-1.56-0.301l-7.62,0.061l0.06,5.76H614.202z"/>
	<path d="M649.782,129.865v5.881h13.08v7.68h-13.08v6.6h17.52v11.82h-30.899v-43.08h30.899v11.1H649.782z"/>
</g>
<path d="M578.382,123.415c2.4,2.081,4.28,4.57,5.641,7.471c1.359,2.9,2.04,6.05,2.04,9.449c0,3.12-0.591,6.041-1.771,8.761
	c-1.18,2.721-2.78,5.1-4.8,7.14c-2.021,2.04-4.391,3.65-7.11,4.83c-2.721,1.18-5.64,1.77-8.76,1.77c-2.28,0-4.461-0.32-6.54-0.96
	c-2.08-0.639-4.02-1.539-5.82-2.699l0,0l-2.88-2.28l0,0c-2.24-2.04-4.011-4.479-5.31-7.32c-1.301-2.84-1.95-5.919-1.95-9.24
	c0-3.12,0.59-6.039,1.771-8.76c1.179-2.72,2.79-5.09,4.83-7.11c2.039-2.019,4.419-3.619,7.14-4.8c2.72-1.179,5.64-1.77,8.76-1.77
	c2.16,0,4.239,0.29,6.24,0.87c2,0.58,3.859,1.41,5.58,2.489"/>
</svg>
