<?xml version="1.0" encoding="utf-8"?>
<!-- Generator: Adobe Illustrator 16.0.0, SVG Export Plug-In . SVG Version: 6.00 Build 0)  -->
<!DOCTYPE svg PUBLIC "-//W3C//DTD SVG 1.1//EN" "http://www.w3.org/Graphics/SVG/1.1/DTD/svg11.dtd">
<svg version="1.1" id="Layer_1" xmlns="http://www.w3.org/2000/svg" xmlns:xlink="http://www.w3.org/1999/xlink" x="0px" y="0px"
	 width="322.5px" height="161px" viewBox="0 27.5 322.5 161" enable-background="new 0 27.5 322.5 161" xml:space="preserve">
<g>
	<path fill="#E6E7E8" stroke="#E6E7E8" stroke-width="5" stroke-miterlimit="10" d="M296.23,47.739
		c1.135-0.188,2.457-0.328,3.906-0.328c2.624,0,4.492,0.656,5.731,1.944c1.279,1.289,2.016,3.139,2.016,5.693
		c0,2.578-0.734,4.686-2.036,6.139c-1.344,1.475-3.527,2.272-6.278,2.272c-1.323,0-2.394-0.047-3.339-0.188V47.739L296.23,47.739z
		 M298.078,61.725c0.463,0.094,1.135,0.094,1.848,0.094c3.906,0.024,6.026-2.437,6.026-6.7c0.021-3.772-1.868-6.092-5.731-6.092
		c-0.945,0-1.659,0.094-2.143,0.211V61.725z"/>
	<path fill="#E6E7E8" stroke="#E6E7E8" stroke-width="5" stroke-miterlimit="10" d="M298.277,70.96v9.371
		c0,3.515,1.407,5.014,3.297,5.014c2.078,0,3.443-1.546,3.443-5.014V70.96h1.848v9.23c0,4.849-2.289,6.817-5.354,6.817
		c-2.898,0-5.082-1.826-5.082-6.747v-9.3H298.277z"/>
	<path fill="#E6E7E8" stroke="#E6E7E8" stroke-width="5" stroke-miterlimit="10" d="M296.336,110.184V94.393h2.016l4.514,7.989
		c1.029,1.851,1.869,3.491,2.52,5.131l0.063-0.022c-0.168-2.11-0.21-4.03-0.21-6.466v-6.631h1.722v15.792h-1.848l-4.493-8.014
		c-0.986-1.757-1.932-3.561-2.625-5.271l-0.063,0.023c0.105,1.991,0.126,3.889,0.126,6.513v6.749h-1.722V110.184z"/>
	<path fill="#E6E7E8" stroke="#E6E7E8" stroke-width="5" stroke-miterlimit="10" d="M307.023,133.123
		c-0.65,0.375-2.017,0.75-3.737,0.75c-3.989,0-6.971-2.813-6.971-8.012c0-4.967,3.003-8.295,7.391-8.295
		c1.743,0,2.876,0.422,3.358,0.705l-0.461,1.662c-0.672-0.375-1.659-0.656-2.834-0.656c-3.318,0-5.522,2.367-5.522,6.514
		c0,3.889,1.995,6.35,5.417,6.35c1.134,0,2.268-0.259,3.002-0.656L307.023,133.123z"/>
	<path fill="#E6E7E8" stroke="#E6E7E8" stroke-width="5" stroke-miterlimit="10" d="M299.107,152.082l-1.469,4.967h-1.891
		l4.809-15.791h2.205l4.828,15.791h-1.952l-1.512-4.967H299.107z M303.748,150.488l-1.406-4.545
		c-0.295-1.03-0.504-1.969-0.715-2.883h-0.063c-0.189,0.914-0.42,1.897-0.693,2.859l-1.385,4.566h4.262V150.488z"/>
	<path fill="#E6E7E8" stroke="#E6E7E8" stroke-width="5" stroke-miterlimit="10" d="M296.336,180.48v-15.791h2.016l4.514,7.988
		c1.029,1.852,1.869,3.491,2.52,5.133l0.063-0.023c-0.168-2.109-0.21-4.029-0.21-6.467v-6.631h1.722v15.791h-1.848l-4.493-8.014
		c-0.986-1.757-1.932-3.561-2.625-5.271l-0.063,0.023c0.105,1.99,0.126,3.891,0.126,6.514v6.746h-1.722V180.48z"/>
</g>
<g>
	<path fill="#E6E7E8" stroke="#E6E7E8" stroke-width="14" stroke-miterlimit="10" d="M33.428,48.897v51.739H71.22V48.897h10.201
		v123.66H71.22V114.58H33.428v57.977H23.227V48.897H33.428z"/>
	<path fill="#E6E7E8" stroke="#E6E7E8" stroke-width="14" stroke-miterlimit="10" d="M111.555,133.661l-8.115,38.896H93.007
		l26.547-123.659h12.172l26.664,123.659h-10.782l-8.346-38.896H111.555z M137.174,121.188l-7.767-35.595
		c-1.624-8.073-2.782-15.412-3.942-22.567h-0.347c-1.044,7.155-2.319,14.861-3.826,22.383l-7.651,35.778H137.174z"/>
	<path fill="#E6E7E8" stroke="#E6E7E8" stroke-width="14" stroke-miterlimit="10" d="M176.699,48.897v73.39
		c0,27.521,7.767,39.263,18.2,39.263c11.477,0,19.012-12.108,19.012-39.263v-73.39h10.202v72.289
		c0,37.979-12.636,53.39-29.561,53.39c-15.998,0-28.054-14.31-28.054-52.841V48.897H176.699z"/>
	<path fill="#E6E7E8" stroke="#E6E7E8" stroke-width="14" stroke-miterlimit="10" d="M240.334,153.109
		c4.522,4.586,11.014,8.072,17.969,8.072c10.318,0,16.345-8.439,16.345-21.101c0-11.375-4.173-18.161-14.722-24.399
		c-12.751-7.34-20.635-17.98-20.635-35.228c0-19.265,10.085-33.575,25.271-33.575c7.883,0,13.795,2.935,17.158,6.054l-2.782,13.027
		c-2.435-2.385-7.651-5.871-14.723-5.871c-10.665,0-14.722,10.09-14.722,18.53c0,11.56,4.753,17.247,15.534,23.852
		c13.216,8.255,19.823,18.163,19.823,36.327c0,19.08-8.81,35.776-27.242,35.776c-7.535,0-15.766-3.67-19.939-8.072L240.334,153.109z
		"/>
</g>
</svg>
