<?xml version="1.0" encoding="utf-8"?>
<!-- Generator: Adobe Illustrator 16.0.0, SVG Export Plug-In . SVG Version: 6.00 Build 0)  -->
<!DOCTYPE svg PUBLIC "-//W3C//DTD SVG 1.1//EN" "http://www.w3.org/Graphics/SVG/1.1/DTD/svg11.dtd">
<svg version="1.1" id="Layer_1" xmlns="http://www.w3.org/2000/svg" xmlns:xlink="http://www.w3.org/1999/xlink" x="0px" y="0px"
	 width="78.025px" height="80.373px" viewBox="0 0 78.025 80.373" enable-background="new 0 0 78.025 80.373" xml:space="preserve">
<circle fill="none" stroke="#6D6E71" stroke-width="3" stroke-miterlimit="10" cx="36" cy="41.318" r="28.8"/>
<rect x="-138.392" y="86.841" fill="none" width="87.063" height="92.04"/>
<g>
	<g>
		<path fill="#6D6E71" d="M33.107,22.021c-6,6-12,12-18,18c-1.711,1.71,0.939,4.363,2.65,2.651c6-6,12-12,18-18
			C37.47,22.961,34.818,20.31,33.107,22.021L33.107,22.021z"/>
	</g>
</g>
<g>
	<g>
		<path fill="#6D6E71" d="M35.997,58.058c-6-6-12-12-18-18c-1.711-1.711-4.363,0.94-2.65,2.651c6,6,12,12,18,18
			C35.057,62.421,37.708,59.771,35.997,58.058L35.997,58.058z"/>
	</g>
</g>
<g>
	<g>
		<path fill="#6D6E71" d="M17.671,43.259c11.002-0.021,22.004-0.043,33.006-0.064c2.419-0.006,2.419-3.755,0-3.75
			c-11.002,0.022-22.004,0.043-33.006,0.065C15.253,39.514,15.252,43.265,17.671,43.259L17.671,43.259z"/>
	</g>
</g>
</svg>
